<?xml version="1.0" encoding="utf-8"?>
<!-- Generator: Adobe Illustrator 24.2.1, SVG Export Plug-In . SVG Version: 6.00 Build 0)  -->
<svg version="1.1" id="Layer_1" xmlns="http://www.w3.org/2000/svg" xmlns:xlink="http://www.w3.org/1999/xlink" x="0px" y="0px"
	 viewBox="0 0 325 136.3" style="enable-background:new 0 0 325 136.3;" xml:space="preserve">
<style type="text/css">
	.st0{fill:#989898;stroke:#989898;stroke-miterlimit:10;}
</style>
<path class="st0" d="M253.6,84.1c0,5.2,0,5.5,0,5.6v7.2h16.1c1.1,0,1.9,0.3,2.4,0.9c0.5,0.6,0.8,1.4,0.8,2.2c0,0.8-0.2,1.5-0.8,2.2
	c-0.5,0.6-1.3,0.9-2.4,0.9h-54.5c-1.2,0-1.9-0.3-2.4-0.9c-0.5-0.6-0.7-1.3-0.7-2.2c0-0.9,0.2-1.6,0.7-2.2c0.4-0.6,1.2-0.9,2.4-0.9
	h15.3V84.1h7.2v12.8h8.9V84.1H253.6z"/>
<path class="st0" d="M242.5,105.8c-9.2,0-16.6,6.8-16.6,15.2c0,8.4,7.4,15.2,16.6,15.2c9.2,0,16.6-6.8,16.6-15.2
	C259.1,112.7,251.6,105.8,242.5,105.8z M242.5,130c-5.4,0-9.8-4-9.8-9c0-5,4.4-9,9.8-9c5.4,0,9.8,4,9.8,9
	C252.2,126,247.9,130,242.5,130z"/>
<path class="st0" d="M242.5,60.2c-9.2,0-16.6,6.8-16.6,15.2c0,8.4,7.4,15.2,16.6,15.2c9.2,0,16.6-6.8,16.6-15.2
	C259.1,67,251.6,60.2,242.5,60.2z M242.5,84.4c-5.4,0-9.8-4-9.8-9c0-4.9,4.4-9,9.8-9c5.4,0,9.8,4,9.8,9
	C252.2,80.4,247.9,84.4,242.5,84.4z"/>
<path class="st0" d="M324.4,84.2c-0.5-0.6-1.3-0.9-2.2-0.9h-7.6v-20c0-1.9-1.5-2.9-3.3-3.1c0,0-0.2,0-0.4,0c-0.1,0-0.3,0-0.4,0
	c-1.8,0.2-3.2,1.3-3.3,3.1v46c0,1.9,1.4,2.9,3.3,3.1c0.1,0,0.3,0,0.4,0c0.1,0,0.3,0,0.4,0c1.8-0.2,3.3-1.3,3.3-3.1V89.4h7.6
	c0.9,0,1.7-0.3,2.2-1c0.4-0.6,0.6-1.3,0.6-2C325,85.5,324.8,84.8,324.4,84.2z"/>
<path class="st0" d="M319.3,125.9c0-0.1,0-0.2,0-0.4c-0.1-1.2-0.7-2.1-1.7-2.5c-0.1,0-0.2-0.1-0.4-0.1c0,0-0.1,0-0.1,0
	c-0.2,0-0.3,0-0.5,0c0,0-0.1,0-0.1,0h-20.3c-3.4,0-3.1-2.1-3.1-2.1v-12.9c0-1.7-1.3-2.7-2.9-2.9c-0.3,0-0.5,0-0.7,0
	c-0.1,0-0.2,0-0.2,0c-1.7,0.2-3.1,1.2-3.1,3c0,0,0,0,0,0v15c0,1,0.2,1.9,0.6,2.7c0.4,0.7,0.9,1.4,1.5,1.8c0.5,0.5,1.2,0.9,2.1,1.1
	c0.8,0.1,1.6,0.3,2.5,0.3h23.8c0,0,0,0,0,0c0.7,0,1.3-0.2,1.7-0.5c0.2-0.2,0.4-0.4,0.6-0.6c0,0,0-0.1,0.1-0.1c0-0.1,0.1-0.1,0.1-0.2
	c0.1-0.1,0.1-0.3,0.1-0.4c0,0,0-0.1,0-0.1c0-0.1,0.1-0.2,0.1-0.3c0-0.1,0-0.2,0-0.3C319.3,126.2,319.3,126.1,319.3,125.9
	C319.3,125.9,319.3,125.9,319.3,125.9z"/>
<path class="st0" d="M301.2,90.7c-4.2-2.8-7.6-6-9.9-9.6c-2.4-3.5-3.5-7.4-3.5-11.5v-0.8v-3.2c-0.1-1.7-1.2-2.7-2.7-3.1c0,0,0,0,0,0
	c-0.2,0-0.4-0.1-0.6-0.1c-0.1,0-0.3,0-0.4,0c0,0,0,0-0.1,0c0,0,0,0-0.1,0c0,0,0,0,0,0c-0.1,0-0.1,0-0.2,0c-0.1,0-0.2,0-0.3,0
	c-1.8,0.2-3.2,1.3-3.3,3.2c0,0,0,0.1,0,0.1v3.1h0v0.8c0,4.1-1.1,8-3.5,11.5c-2.3,3.6-5.7,6.8-9.9,9.6c-0.8,0.5-1.1,1.3-1.1,1.9
	c0,0.7,0.4,1.4,1,2.1c0.7,0.7,1.5,1,2.4,1c0.8,0,1.3-0.2,1.9-0.5c3-1.9,5.5-3.9,7.6-6.3c2.2-2.3,4.2-4.8,5.5-7.4
	c1.3,2.7,3.3,5.2,5.5,7.4c2.1,2.4,4.6,4.5,7.6,6.3c0.6,0.3,1.1,0.5,1.9,0.5c0.9,0,1.7-0.3,2.4-1c0.6-0.7,1-1.3,1-2.1
	C302.4,92,302.1,91.2,301.2,90.7z"/>
<path class="st0" d="M50,82.8c0-1.5,0.6-2.4,1.5-3.2c1-0.8,1.9-1.1,3.5-1.1c1.8,0,6.6,0,8.6,0c1.1,0,1.5-0.9,1.5-1.6v-5.3
	c0-0.4-0.1-0.8-0.1-1.1c-0.1-0.2-0.3-0.4-0.5-0.5C64.2,70.1,64,70,63.8,70c-0.3,0-0.6,0-1,0H52.3c-0.8,0-1.4-0.2-1.8-0.6
	c-0.5-0.4-0.7-0.9-0.7-1.6c0-0.7,0.2-1.3,0.7-1.8c0.4-0.5,1-0.7,1.8-0.7h11.8c1.1,0,2,0.1,2.9,0.1c0.8,0.1,1.5,0.3,2.2,0.6
	c0.6,0.3,1.1,0.7,1.5,1.2c0.3,0.6,0.5,1.3,0.5,2.3v9.9c0,1.5-0.5,2.5-1.5,3.2c-1.1,0.7-2.4,1.1-4,1.1h-10V91c0,0.8,0.1,1.3,0.2,1.6
	c0.1,0.4,0.7,0.5,1.9,0.5h20.4c0.8,0,1.4,0.2,1.8,0.6c0.4,0.5,0.6,1,0.6,1.7c0,0.8-0.2,1.3-0.6,1.8c-0.5,0.5-1.1,0.8-1.8,0.8H55.6
	c-1.6,0-2.9-0.3-4-1c-1.1-0.6-1.7-1.8-1.7-3.3L50,82.8z"/>
<rect x="81.2" y="80.6" class="st0" width="9.4" height="4.5"/>
<path class="st0" d="M25.7,66.3c-0.9-0.8-2-1.2-3.4-1.2H4.7c-1.4,0-2.5,0.4-3.4,1.2C0.4,67.2,0,68.2,0,69.5V86
	c0,1.3,0.5,2.3,1.4,3.2c0.9,0.8,2,1.2,3.4,1.2h17.5c1.4,0,2.5-0.4,3.4-1.2c0.9-0.8,1.4-1.9,1.4-3.2V69.5
	C27.1,68.2,26.6,67.2,25.7,66.3z M21.1,85.1c0,0.4-0.3,0.6-0.6,0.6H6.6c-0.4,0-0.6-0.3-0.6-0.6V70.9c0-0.4,0.3-0.6,0.6-0.6h13.8
	c0.4,0,0.6,0.3,0.6,0.6V85.1z"/>
<path class="st0" d="M182,90.5c-3.7-2.5-6.6-5.3-8.6-8.4c-2.1-3.1-3.1-6.5-3.1-10.1v-6.7c0-0.7-0.3-1.2-1-1.6
	c-0.7-0.3-1.4-0.6-2.3-0.6c0,0-0.1,0-0.1,0c0,0,0,0-0.1,0c-0.9,0-1.6,0.3-2.3,0.6c-0.6,0.4-1,0.9-1,1.6V72c0,3.6-1,7-3.1,10.1
	c-2,3.1-5,6-8.6,8.4c-0.7,0.4-1,1.1-1,1.7c0,0.6,0.3,1.2,0.9,1.8c0.6,0.6,1.3,0.9,2.1,0.9c0.7,0,1.2-0.2,1.7-0.5
	c2.6-1.6,4.8-3.4,6.7-5.5c1.9-2,3.7-4.2,4.8-6.5c1.1,2.3,2.9,4.6,4.8,6.5c1.9,2.1,4,3.9,6.7,5.5c0.5,0.3,1,0.5,1.7,0.5
	c0.8,0,1.5-0.3,2.1-0.9c0.5-0.6,0.9-1.2,0.9-1.8C183,91.6,182.7,91,182,90.5z"/>
<g>
	<path class="st0" d="M40.9,16.8c-5,0-9.1,4.1-9.1,9.1c0,3.9,3.3,6.5,3.3,6.5c1.4,1.1,2.7,3.5,2.7,5.4v8.8v5.2
		c0,1.5,1.2,2.4,2.7,2.6c0.1,0,0.3,0,0.3,0c0.1,0,0.2,0,0.3,0c1.5-0.2,2.7-1,2.7-2.6v-5.2v-8.8c0-1.8,1.3-4.2,2.7-5.3
		c0,0,3.5-2.6,3.5-6.6C50,20.9,46,16.8,40.9,16.8z M40.9,30.1c-2.3,0-4.2-1.9-4.2-4.2c0-2.3,1.9-4.2,4.2-4.2c2.3,0,4.2,1.9,4.2,4.2
		C45.1,28.2,43.2,30.1,40.9,30.1z"/>
</g>
<g>
	<g>
		<path class="st0" d="M192.7,16.8c-5,0-9.1,4.1-9.1,9.1c0,3.9,3.3,6.5,3.3,6.5c1.4,1.1,2.7,3.5,2.7,5.4v8.8v5.2
			c0,1.5,1.2,2.4,2.7,2.6c0.1,0,0.3,0,0.3,0c0.1,0,0.2,0,0.3,0c1.5-0.2,2.7-1,2.7-2.6v-5.2v-8.8c0-1.8,1.3-4.2,2.7-5.3
			c0,0,3.5-2.6,3.5-6.6C201.8,20.9,197.7,16.8,192.7,16.8z M192.7,30.1c-2.3,0-4.2-1.9-4.2-4.2c0-2.3,1.9-4.2,4.2-4.2
			s4.2,1.9,4.2,4.2C196.9,28.2,195,30.1,192.7,30.1z"/>
	</g>
</g>
<g>
	<path class="st0" d="M125.8,22.2c-5,0-9.1,4.1-9.1,9.1c0,3.9,3.3,6.5,3.3,6.5c1.4,1.1,2.7,3.5,2.7,5.4v9.2v5.2
		c0,1.5,1.2,2.4,2.7,2.6c0.1,0,0.3,0,0.3,0c0.1,0,0.2,0,0.3,0c1.5-0.2,2.7-1,2.7-2.6v-5.2v-9.2c0-1.8,1.3-4.2,2.7-5.3
		c0,0,3.5-2.6,3.5-6.6C134.9,26.2,130.9,22.2,125.8,22.2z M125.8,35.5c-2.3,0-4.2-1.9-4.2-4.2c0-2.3,1.9-4.2,4.2-4.2
		c2.3,0,4.2,1.9,4.2,4.2C130,33.6,128.1,35.5,125.8,35.5z"/>
</g>
<g>
	<g>
		<path class="st0" d="M93.3,29.7c-5,0-9.1,4.1-9.1,9.1c0,3.9,3.3,6.5,3.3,6.5c1.4,1.1,2.7,3.5,2.7,5.4v-0.1v1.2
			c0,1.5,1.2,2.4,2.7,2.6c0.1,0,0.3,0,0.3,0c0.1,0,0.2,0,0.3,0c1.5-0.2,2.7-1,2.7-2.6v-1.2v0.1c0-1.8,1.3-4.2,2.7-5.3
			c0,0,3.5-2.6,3.5-6.6C102.4,33.8,98.3,29.7,93.3,29.7z M93.3,43c-2.3,0-4.2-1.9-4.2-4.2c0-2.3,1.9-4.2,4.2-4.2
			c2.3,0,4.2,1.9,4.2,4.2C97.5,41.1,95.6,43,93.3,43z"/>
	</g>
</g>
<g>
	<path class="st0" d="M79.9,0c-5,0-9.1,4.1-9.1,9.1c0,3.9,3.3,6.5,3.3,6.5c1.4,1.1,2.7,3.5,2.7,5.4v25.6v5.2c0,1.5,1.2,2.4,2.7,2.6
		c0.1,0,0.3,0,0.3,0c0.1,0,0.2,0,0.3,0c1.5-0.2,2.7-1,2.7-2.6v-5.2V21c0-1.8,1.3-4.2,2.7-5.3c0,0,3.5-2.6,3.5-6.6
		C89,4.1,85,0,79.9,0z M79.9,13.3c-2.3,0-4.2-1.9-4.2-4.2c0-2.3,1.9-4.2,4.2-4.2c2.3,0,4.2,1.9,4.2,4.2
		C84.1,11.4,82.3,13.3,79.9,13.3z"/>
</g>
<path class="st0" d="M41.1,60.2c0,0-0.2,0-0.3,0c-0.1,0-0.2,0-0.3,0c-1.5,0.2-2.6,1-2.7,2.6V112c0,1.5,1.2,2.4,2.7,2.6
	c0.1,0,0.2,0,0.3,0c0.1,0,0.3,0,0.3,0c1.5-0.2,2.7-1,2.7-2.6V62.8C43.8,61.2,42.6,60.4,41.1,60.2z"/>
<path class="st0" d="M192.9,60.2c0,0-0.2,0-0.3,0c-0.1,0-0.2,0-0.4,0c-1.5,0.2-2.6,1-2.7,2.6V112c0,1.5,1.2,2.4,2.7,2.6
	c0.1,0,0.2,0,0.4,0c0.1,0,0.3,0,0.3,0c1.5-0.2,2.7-1,2.7-2.6V62.8C195.6,61.2,194.4,60.4,192.9,60.2z"/>
<path class="st0" d="M93.5,60.2c0,0-0.2,0-0.3,0c-0.1,0-0.2,0-0.4,0c-1.5,0.2-2.6,1-2.7,2.6V112c0,1.5,1.2,2.4,2.7,2.6
	c0.1,0,0.2,0,0.4,0c0.1,0,0.3,0,0.3,0c1.5-0.2,2.7-1,2.7-2.6V62.8C96.1,61.2,95,60.4,93.5,60.2z"/>
<path class="st0" d="M80.2,60.2c0,0-0.2,0-0.3,0c-0.1,0-0.2,0-0.4,0c-1.5,0.2-2.6,1-2.7,2.6v61.1c0,1.5,1.2,2.4,2.7,2.6
	c0.1,0,0.2,0,0.4,0c0.1,0,0.3,0,0.3,0c1.5-0.2,2.7-1,2.7-2.6V62.8C82.8,61.2,81.7,60.4,80.2,60.2z"/>
<path class="st0" d="M152.6,99.9c-0.1-1.2-0.8-2.2-2.1-2.2h-21.8l0,0V86.4h-6v11.4l0,0h-21.5c-1.2,0-1.9,1-2.1,2.2c0,0,0,0.2,0,0.2
	c0,0.1,0,0.2,0,0.3c0.1,1.2,0.8,2.1,2.1,2.2h49.3c1.2,0,1.9-1,2.1-2.2c0-0.1,0-0.2,0-0.3C152.6,100.1,152.6,99.9,152.6,99.9z"/>
<path class="st0" d="M143.3,86.1c-0.1-1.2-0.8-2.1-2-2.1c-0.1,0-0.2,0-0.3,0l-26,0c-0.4,0-0.6-0.3-0.6-0.6V70.7
	c0-0.4,0.3-0.6,0.6-0.6l25.3,0c0.1,0,0.2,0,0.2,0c1.2-0.1,1.9-1,2-2.2c0,0,0-0.1,0-0.1c0-0.2,0-0.3,0-0.5c-0.1-1-0.7-1.8-1.6-2
	c-0.2,0-0.4-0.1-0.6-0.1h-27.2c-1.4,0-2.5,0.4-3.4,1.2c-0.9,0.8-1.4,1.9-1.4,3.2v14.9c0,1.3,0.5,2.3,1.4,3.1c0.9,0.8,2,1.2,3.4,1.2
	H141c0,0,0.6,0,1.1-0.2c0,0,0.1,0,0.1,0c0.1,0,0.1-0.1,0.2-0.1c0,0,0,0,0.1,0c0,0,0,0,0,0l0,0c0.5-0.4,0.8-1,0.8-1.7
	c0,0,0-0.1,0-0.2C143.4,86.3,143.4,86.2,143.3,86.1z"/>
</svg>
